<svg width="40" height="40" viewBox="0 0 40 40" fill="none" xmlns="http://www.w3.org/2000/svg">
  <defs>
    <linearGradient id="iconGradient" x1="0%" y1="0%" x2="100%" y2="0%">
      <stop offset="0%" style="stop-color:#ff00ff;stop-opacity:1" />
      <stop offset="100%" style="stop-color:#00ffff;stop-opacity:1" />
    </linearGradient>
  </defs>
  <rect width="40" height="40" rx="12" fill="url(#iconGradient)"/>
  <!-- Music note icon (simplified version of fa-solid fa-music) -->
  <path d="M28 8.5c0-.83-.67-1.5-1.5-1.5s-1.5.67-1.5 1.5v11.17c-.42-.11-.87-.17-1.33-.17-2.21 0-4 1.34-4 3s1.79 3 4 3 4-1.34 4-3V12.83l4-1.33V8.5zm-8 15c0 .55-.45 1-1 1s-1-.45-1-1 .45-1 1-1 1 .45 1 1zm-6-8c0-.83-.67-1.5-1.5-1.5S11 14.67 11 15.5v6.17c-.42-.11-.87-.17-1.33-.17-2.21 0-4 1.34-4 3s1.79 3 4 3 4-1.34 4-3V15.5zm-2 12c0 .55-.45 1-1 1s-1-.45-1-1 .45-1 1-1 1 .45 1 1z" fill="white"/>
</svg>
